<?xml version="1.0" encoding="UTF-8" standalone="no"?>
<!DOCTYPE svg PUBLIC "-//W3C//DTD SVG 1.1//EN" "http://www.w3.org/Graphics/SVG/1.1/DTD/svg11.dtd">
<svg width="100%" height="100%" viewBox="0 0 6000 6000" version="1.1" xmlns="http://www.w3.org/2000/svg" xmlns:xlink="http://www.w3.org/1999/xlink" xml:space="preserve" xmlns:serif="http://www.serif.com/" style="fill-rule:evenodd;clip-rule:evenodd;stroke-linejoin:round;stroke-miterlimit:1.41421;">
    <g transform="matrix(5.55556,0,0,5.55556,-78.7353,-78.7516)">
        <g id="path4644" transform="matrix(0.630037,0,0,0.630045,-19.5755,-19.5799)">
            <path d="M910.658,53.576C437.299,53.576 53.566,437.304 53.565,910.658C53.566,1384.01 437.299,1767.74 910.658,1767.74C1384.02,1767.74 1767.75,1384.01 1767.75,910.658C1767.75,437.304 1384.02,53.576 910.658,53.576ZM910.658,153.663C932.883,153.663 955.11,156.544 976.281,162.311C985.12,164.719 996.899,167.597 1002.46,168.706C1014.72,171.152 1056.97,192.652 1075.38,205.816C1108.28,229.335 1133.02,257.474 1163.77,306.341C1166.13,310.105 1167.38,310.161 1174.48,306.801C1197.31,296 1220.32,291.518 1260.45,290.053C1307.17,288.347 1323.94,290.614 1365.42,304.248C1434.25,326.874 1484.33,370.184 1522.3,439.924C1538.12,468.988 1545.31,502.603 1545.39,547.834L1545.43,574.713L1563.22,584.945C1598.17,605.044 1629.76,644.098 1644.72,685.674C1650.15,700.804 1650.99,708.169 1651.1,741.919C1651.24,783.43 1648.97,794.545 1634.42,823.592C1624.67,843.036 1597.53,877.646 1586.1,885.196C1566.47,898.163 1566.86,897.439 1566.86,920.33C1566.86,938.025 1565.62,944.072 1559.22,957.529C1544.43,988.613 1512.31,1012.89 1475.52,1020.78C1454.61,1025.27 1407.72,1022.47 1392.74,1015.84L1380.65,1010.5L1373.99,1021.15C1357.81,1046.99 1323.67,1068.77 1288.2,1075.89C1259.83,1081.58 1231.78,1077.75 1203.37,1064.32L1184.04,1055.18L1171.69,1064.61C1158.47,1074.7 1147.34,1078.86 1143.76,1075.05C1139.75,1070.77 1127.23,1032.94 1120.37,1004.4C1114.61,980.447 1113.43,968.137 1112.41,921.371C1111.56,882.555 1112.26,860.575 1114.79,846.374L1118.36,826.288L1089.43,827.124C1039.17,828.58 1007.88,815.071 966.664,774.124C945.886,753.483 920.349,720.371 912.075,703.335C911.044,701.214 910.259,701.214 909.229,703.335C900.955,720.371 875.424,753.483 854.646,774.124C813.426,815.071 782.136,828.58 731.881,827.124L702.948,826.288L706.53,846.374C709.059,860.575 709.754,882.555 708.905,921.371C707.883,968.137 706.7,980.447 700.944,1004.4C694.084,1032.94 681.562,1070.77 677.552,1075.05C673.976,1078.87 662.835,1074.69 649.571,1064.57L637.164,1055.1L620.09,1063.51C602.601,1072.12 571.143,1079.6 554.428,1079.13C549.272,1078.98 537.42,1077.19 528.086,1075.14C496.934,1068.33 462.41,1045.25 447.32,1021.15L440.654,1010.5L428.574,1015.84C413.596,1022.47 366.701,1025.27 345.793,1020.78C309.003,1012.89 276.876,988.613 262.094,957.529C255.694,944.072 254.45,938.025 254.448,920.33C254.446,897.439 254.847,898.163 235.215,885.196C223.784,877.646 196.635,843.036 186.893,823.592C172.339,794.545 170.067,783.43 170.206,741.919C170.319,708.169 171.16,700.804 176.601,685.674C191.552,644.098 223.14,605.044 258.086,584.945L275.874,574.713L275.924,547.834C276.002,502.603 283.199,468.988 299.022,439.924C318.329,404.46 330.452,388.021 353.434,366.151C383.992,337.071 417.342,316.921 455.896,304.248C497.376,290.614 514.143,288.347 560.867,290.053C600.998,291.518 624.006,296 646.836,306.801C653.94,310.161 655.181,310.105 657.549,306.341C688.291,257.474 713.037,229.335 745.938,205.816C764.354,192.652 806.598,171.152 818.858,168.706C824.417,167.597 836.201,164.719 845.04,162.311C866.21,156.544 888.432,153.663 910.658,153.663L910.658,153.663ZM704.963,184.811C709.432,184.811 706.818,192.172 700.135,198.403C688.343,209.4 663.323,244.134 653.497,263.146C648.06,273.664 642.476,281.138 640.137,281.034C637.928,280.938 631.303,278.726 625.41,276.123C611.767,270.098 576.018,260.735 557.778,258.412C549.338,257.337 543.715,255.295 543.715,253.302C543.715,250.076 597.027,223.191 626.745,211.43C644.8,204.285 702.025,184.811 704.963,184.811ZM1116.35,184.811C1119.29,184.811 1176.52,204.285 1194.57,211.43C1224.29,223.191 1277.6,250.076 1277.6,253.302C1277.6,255.295 1271.98,257.337 1263.54,258.412C1245.4,260.722 1209.86,270.003 1195.01,276.306C1188.63,279.016 1182.01,281.228 1180.29,281.222C1178.57,281.217 1172.96,273.084 1167.82,263.146C1157.99,244.134 1132.97,209.4 1121.18,198.403C1114.5,192.172 1111.88,184.811 1116.35,184.811ZM910.658,198.353C895.244,198.353 879.833,200.983 859.191,206.248C801.421,220.983 762.667,239.458 729.65,268.007C719.264,276.987 695.461,304.975 691.061,313.378C689.133,317.061 684.834,323.344 681.511,327.341C678.188,331.337 674.982,336.07 674.386,337.86C673.595,340.232 667.168,339.191 650.695,334.029C616.12,323.193 595.269,320.575 556.083,322.142C515.528,323.764 489.662,329.79 456.35,345.378C386.466,378.08 336.05,435.875 314.397,508.105C308.973,526.196 306.945,540.063 305.666,567.826L303.999,603.979L291.476,610.733C280.192,616.819 263.134,631.448 247.323,648.597C236.833,659.974 222.332,690.559 218.268,709.879C213.253,733.721 213.23,749.384 218.163,775.165C223.946,805.389 246.613,842.138 271.257,861.245L285.253,872.096L286.692,893.39C287.83,910.165 289.71,917.343 295.556,927.239C308.861,949.759 319.729,959.31 349.182,974.393C361.039,980.465 399.788,981.629 421.344,976.558C446.615,970.612 447.642,970.819 456.445,983.749C460.741,990.061 467.121,997.384 470.618,1000.02C485.553,1011.29 511.294,1023.82 526.259,1027.11C547.411,1031.76 544.804,1031.75 568.269,1027.26L568.269,1027.25C579.674,1025.07 597.723,1018.92 608.857,1013.41L628.904,1003.49L641.865,1014.9L654.831,1026.31L658.474,1017.37C666.059,998.776 669.359,972.305 671.075,916.266C672.688,863.562 672.316,855.457 666.884,824.948C663.605,806.534 660.303,787.971 659.542,783.696C658.267,776.526 658.658,776.075 664.553,777.9C689.467,785.613 728.655,786.757 754.868,780.535C786.305,773.073 810.247,759.279 835.828,733.885C848.441,721.364 863.511,704.285 869.312,695.939C899.751,652.136 906.987,642.844 910.658,642.844C914.329,642.844 921.564,652.136 952.004,695.939C957.804,704.285 972.874,721.364 985.488,733.885C1011.07,759.279 1035.01,773.073 1066.45,780.535C1092.66,786.757 1131.85,785.613 1156.77,777.9C1162.66,776.075 1163.05,776.526 1161.77,783.696C1161.01,787.971 1157.71,806.534 1154.43,824.948C1149,855.457 1148.63,863.562 1150.24,916.266C1151.96,972.305 1155.26,998.776 1162.84,1017.37L1166.49,1026.31L1179.45,1014.9L1192.41,1003.49L1212.5,1013.42C1223.87,1019.05 1241.61,1025.07 1253.4,1027.31C1271.69,1030.78 1276.49,1030.79 1292.81,1027.35C1309.85,1023.77 1334.9,1011.94 1350.7,1000.02C1354.2,997.383 1360.57,990.061 1364.87,983.749C1373.67,970.819 1374.7,970.612 1399.97,976.557C1421.53,981.629 1460.28,980.465 1472.14,974.393C1501.59,959.309 1512.45,949.759 1525.76,927.239C1531.61,917.343 1533.49,910.164 1534.62,893.389L1536.07,872.096L1550.06,861.245C1574.7,842.137 1597.37,805.389 1603.15,775.165C1608.09,749.384 1608.06,733.721 1603.05,709.879C1598.98,690.559 1584.48,659.974 1573.99,648.597C1558.18,631.448 1541.12,616.819 1529.84,610.733L1517.32,603.979L1515.65,567.826C1514.37,540.062 1512.35,526.196 1506.92,508.104C1485.27,435.874 1434.85,378.08 1364.96,345.378C1331.65,329.79 1305.79,323.764 1265.24,322.142C1226.05,320.575 1205.19,323.193 1170.62,334.028C1154.15,339.191 1147.72,340.231 1146.93,337.86C1146.33,336.069 1143.13,331.337 1139.81,327.34C1136.48,323.344 1132.18,317.06 1130.25,313.378C1125.85,304.975 1102.05,276.987 1091.66,268.007C1058.65,239.458 1019.89,220.983 962.124,206.248C941.482,200.983 926.071,198.353 910.658,198.353L910.658,198.353ZM161.47,878.519C163.748,878.519 169.377,883.274 173.982,889.088C178.587,894.902 189.739,905.209 198.763,911.992L215.167,924.321L215.389,950.348C215.591,974.101 216.376,977.932 224.38,994.197C239.463,1024.85 274.047,1050.64 310.106,1058.13C333.779,1063.04 370.133,1060.15 391.259,1051.66C400.95,1047.77 409.572,1044.58 410.42,1044.58C411.269,1044.58 415.586,1051 420.015,1058.85C440.854,1095.77 485.138,1119.57 533.002,1119.57C563.22,1119.57 584.842,1113.01 612.466,1095.46C617.773,1092.09 619.201,1092.61 628.97,1101.44C634.852,1106.75 642.182,1112.44 645.258,1114.09C648.335,1115.73 650.85,1119.6 650.85,1122.67C650.85,1128.87 632.278,1156.06 613.479,1177.39C606.781,1184.99 592.262,1203.09 581.213,1217.62C544.547,1265.84 476.791,1331.84 418.127,1376.48C387.338,1399.91 358.54,1419.57 355.084,1419.5C353.505,1419.47 344.977,1410.82 336.138,1400.26C243.42,1289.52 187.736,1166.62 164.448,1021.31C162.107,1006.7 159.587,969.154 158.779,936.773C157.496,885.371 157.815,878.519 161.47,878.519ZM1659.85,878.519C1663.5,878.519 1663.82,885.371 1662.54,936.773C1661.73,969.154 1659.21,1006.7 1656.87,1021.31C1633.63,1166.32 1576.35,1292.79 1485.61,1399.47C1476.84,1409.78 1468.3,1418.55 1466.63,1418.97C1464.96,1419.38 1455.07,1413.84 1444.63,1406.65C1367.81,1353.73 1286.37,1278.45 1240.1,1217.62C1229.05,1203.09 1214.54,1184.99 1207.84,1177.39C1189.04,1156.06 1170.46,1128.87 1170.46,1122.67C1170.46,1119.6 1172.98,1115.73 1176.06,1114.09C1179.13,1112.44 1186.46,1106.75 1192.35,1101.44C1202.11,1092.61 1203.54,1092.09 1208.85,1095.46C1236.47,1113.01 1258.1,1119.57 1288.31,1119.57C1336.18,1119.57 1380.46,1095.77 1401.3,1058.85C1405.73,1051 1410.05,1044.58 1410.89,1044.58C1411.74,1044.58 1420.37,1047.77 1430.06,1051.66C1451.18,1060.15 1487.54,1063.04 1511.21,1058.13C1547.27,1050.64 1581.85,1024.85 1596.93,994.197C1604.94,977.932 1605.72,974.101 1605.93,950.348L1606.15,924.321L1622.55,911.992C1631.58,905.209 1642.73,894.902 1647.33,889.088C1651.94,883.274 1657.57,878.519 1659.85,878.519L1659.85,878.519ZM1258.85,1437.48C1284.83,1437.48 1310.82,1444.15 1331.76,1457.5C1347.22,1467.34 1374.02,1495.76 1374.02,1502.31C1374.02,1507.47 1348.59,1526.79 1308.4,1552.17C1265.39,1579.33 1172.64,1621.74 1143.55,1627.56C1136.37,1628.99 1135.24,1628.19 1131.13,1618.76C1125.33,1605.42 1123.07,1555.65 1127.48,1538.14C1135.27,1507.19 1158.73,1474.83 1185.94,1457.5C1206.88,1444.15 1232.86,1437.48 1258.85,1437.48ZM565.706,1437.59C589.687,1437.93 613.341,1443.77 632.104,1455.17C646.174,1463.72 668.439,1485.56 677.353,1499.56C681.7,1506.38 687.757,1519.45 690.818,1528.62C701.884,1561.74 695.929,1626.15 681.655,1627.72C678.709,1628.04 665.448,1624.3 652.19,1619.41C617.33,1606.56 596.965,1597.66 564.709,1581.21C512.654,1554.66 447.293,1510.74 447.293,1502.31C447.293,1495.76 474.097,1467.34 489.552,1457.5C510.928,1443.88 538.527,1437.2 565.706,1437.59ZM910.658,1502.58C953.118,1502.58 981.56,1514.44 1008.87,1543.51C1033.95,1570.2 1044.58,1596.21 1044.58,1630.88C1044.58,1648.85 1043.84,1652.44 1039.89,1653.69C1011.31,1662.69 875.488,1666.07 818.581,1659.19C773.173,1653.7 776.737,1656.1 776.737,1631.01C776.737,1594.48 790.115,1564.16 817.657,1538.29C845.839,1511.81 869.873,1502.58 910.658,1502.58Z" style="fill:rgb(0,128,0);fill-rule:nonzero;"/>
        </g>
    </g>
</svg>
