<svg width="6000" height="6000" version="1.1" xmlns="http://www.w3.org/2000/svg" xmlns:xlink="http://www.w3.org/1999/xlink" xml:space="preserve" xmlns:serif="http://www.serif.com/" style="fill-rule: evenodd; clip-rule: evenodd; stroke-linejoin: round; stroke-miterlimit: 1.41421;"><rect id="backgroundrect" width="100%" height="100%" x="0" y="0" fill="none" stroke="none"/>
    
<g class="currentLayer" style=""><title>Layer 1</title><g id="svg_1" class="selected" stroke-opacity="1" stroke="#aac83c" fill="#aac83c" fill-opacity="1">
        <g id="path4644" stroke-width="0" stroke="#aac83c" fill="#aac83c" fill-opacity="1">
            <path d="M3000.0046565793746,0.0006380405966410763 C1343.1494882907427,0.0006380405966410763 0.003994151509687072,1343.1456555196564 0.00048251361840812024,3000.0045166395284 C0.003994151509687072,4656.856220870104 1343.1494882907427,6000.00822165719 3000.0046565793746,6000.00822165719 C4656.870293020504,6000.00822165719 6000.005185484886,4656.856220870104 6000.005185484886,3000.0045166395284 C6000.005185484886,1343.1456555196564 4656.870293020504,0.0006380405966410763 3000.0046565793746,0.0006380405966410763 zM3000.0046565793746,350.33043585706764 C3077.796702322521,350.33043585706764 3155.5957980459207,360.4147065140569 3229.698781394749,380.60065936468163 C3260.6370856465655,389.0292317516287 3301.866011074657,399.1029807131599 3321.3307929180155,402.98473860246304 C3364.2431681762682,411.5463543568512 3512.1269721399294,486.8017930422684 3576.565928011958,532.8791281628401 C3691.7228690971388,615.2016211610135 3778.3179901831318,713.6952123434457 3885.9493978016544,884.7420892249647 C3894.2098383007688,897.9170678655282 3898.5850987730664,898.1130811768526 3923.436492801411,886.3521756781483 C4003.346523521235,848.5459613800049 4083.8859252054826,832.8578464040038 4224.349304498988,827.7299886328183 C4387.879364637949,821.7584724786138 4446.577500226209,829.6936467810883 4591.76650264702,877.4159982473793 C4832.685691475868,956.6127465501995 5007.975973220251,1108.2086937937493 5140.879210053128,1352.3164080085553 C5196.252318591054,1454.047743862866 5221.419039008906,1571.7087130021173 5221.698901861382,1730.0286111491732 L5221.8390469233855,1824.1120096460509 L5284.107463420485,1859.9265791541984 C5406.440002588846,1930.2781600214803 5517.011465608724,2066.9770956043794 5569.374446214293,2212.503573447684 C5588.380765705428,2265.462417855524 5591.320821106783,2291.2417467393243 5591.705792755762,2409.3752842106187 C5592.195873201243,2554.6742370658467 5584.250331820105,2593.5795145575685 5533.322556285479,2695.251352093401 C5499.195524601557,2763.310378362512 5404.199817954446,2884.4540821079863 5364.192248196283,2910.880949244238 C5295.483140648459,2956.2688729690126 5296.8482731884,2953.734693242659 5296.8482731884,3033.8589530344325 C5296.8482731884,3095.7959548356303 5292.508048981603,3116.9619742428767 5270.106629909133,3164.0647740984423 C5218.338838545547,3272.8665824812924 5105.912162540248,3357.8423586620193 4977.139359592693,3385.459405806323 C4903.949882776069,3401.17550742405 4739.825060666655,3391.374628219346 4687.392007530085,3368.168147627948 L4645.07460787805,3349.476702809334 L4621.76310044562,3386.7544823112257 C4565.129968164256,3477.2008992146584 4445.632802872278,3553.4365112759406 4321.480086983996,3578.358295275102 C4222.17919239559,3598.274529536575 4123.998603760148,3584.8687145113945 4024.5575641097385,3537.8601292283565 L3956.8986899838783,3505.868193158385 L3913.670774700353,3538.8753393160005 C3867.3981224905,3574.1927720661624 3828.4407861543004,3588.7539440261025 3815.910193979391,3575.41820242448 C3801.8743242025375,3560.4370172001654 3758.051646948559,3428.0221741861897 3734.0402687491733,3328.1252451958426 C3713.879034311103,3244.2836757397163 3709.7490276973112,3201.1955703216518 3706.1787467884715,3037.5025574209576 C3703.203655121615,2901.636811935241 3705.6536300774897,2824.7013201923255 3714.5092598185875,2774.9942671868484 L3727.004815727996,2704.688191317182 L3625.744026629196,2707.6143976661842 C3449.823519377329,2712.7107437606173 3340.301862507884,2665.425710276104 3196.0372620433045,2522.1009906742256 C3123.309879386914,2449.8520864087186 3033.9251024783007,2333.95171203636 3004.9644245053933,2274.3215786119254 C3001.3556891588087,2266.897427569056 2998.607905946177,2266.897427569056 2995.002802407602,2274.3215786119254 C2966.0421244346944,2333.95171203636 2876.6782838310755,2449.8520864087186 2803.950901174685,2522.1009906742256 C2659.6724143853644,2665.425710276104 2550.1507575159194,2712.7107437606173 2374.2477683968027,2707.6143976661842 L2272.97629750974,2704.688191317182 L2285.514153300668,2774.9942671868484 C2294.3661512337567,2824.7013201923255 2296.798821692646,2901.636811935241 2293.8271481980337,3037.5025574209576 C2290.2498173089407,3201.1955703216518 2286.1091289068863,3244.2836757397163 2265.9617807935574,3328.1252451958426 C2241.9504025941715,3428.0221741861897 2198.120888995705,3560.4370172001654 2184.085019218852,3575.41820242448 C2171.5683133686834,3588.7889807378815 2132.572522594739,3574.1577353543835 2086.1456253623764,3538.7351924688846 L2042.718601545639,3505.5878994641535 L1982.9561325749091,3535.0251465130714 C1921.7409404004866,3565.1622732436226 1811.6313579050766,3591.344097035908 1753.1252808697755,3589.6990806901886 C1735.0781859646086,3589.173957290477 1693.5937521612796,3582.9083677596645 1660.9228618532943,3575.733105553518 C1551.8843422669597,3551.896177788585 1431.0431943758012,3471.1104932427406 1378.2250627723697,3386.7544823112257 L1354.8926190349448,3349.476702809334 L1312.6101488305285,3368.168147627948 C1260.1840388563287,3391.374628219346 1096.0416986141645,3401.17550742405 1022.8593785956764,3385.459405806323 C894.0866824660043,3357.8423586620193 781.6355451655836,3272.8665824812924 729.8954196335981,3164.0647740984423 C707.4941073790105,3116.9619742428767 703.1398366206486,3095.7959548356303 703.1328400493367,3033.8589530344325 C703.1258434780248,2953.734693242659 704.5294304557101,2956.2688729690126 635.8133263365744,2910.880949244238 C595.8024452240497,2884.4540821079863 500.7752807105062,2763.310378362512 466.6762887207733,2695.251352093401 C415.7342529988164,2593.5795145575685 407.78176845530834,2554.6742370658467 408.2682705017214,2409.3752842106187 C408.6638171210798,2291.2417467393243 411.6075043304445,2265.462417855524 430.65211803249986,2212.503573447684 C482.9837475895183,2066.9770956043794 593.5483208559672,1930.2781600214803 715.8665998369979,1859.9265791541984 L778.1282868074923,1824.1120096460509 L778.3033613171137,1730.0286111491732 C778.5763878251018,1571.7087130021173 803.7673559023096,1454.047743862866 859.151146228498,1352.3164080085553 C926.7296933066245,1228.1833677413306 969.1626699076587,1170.6427255336894 1049.6044400471874,1094.0922103433695 C1156.5638563661196,992.3049012056072 1273.295827130598,921.7747185636472 1408.2428105117287,877.4159982473793 C1553.4314924788923,829.6936467810883 1612.119480368303,821.7584724786138 1775.6632131962397,827.7299886328183 C1916.1300106619892,832.8578464040038 1996.662789637514,848.5459613800049 2076.572606721573,886.3521756781483 C2101.438100710424,898.1130811768526 2105.78195672523,897.9170678655282 2114.070383509592,884.7420892249647 C2221.673804842867,713.6952123434457 2308.2898622338544,615.2016211610135 2423.450221491279,532.8791281628401 C2487.910113668302,486.8017930422684 2635.772981326969,411.5463543568512 2678.6853565852216,402.98473860246304 C2698.143088448327,399.1029807131599 2739.3895320091688,389.0292317516287 2770.3278362609854,380.60065936468163 C2844.4274014375696,360.4147065140569 2922.208979028219,350.33043585706764 3000.0046565793746,350.33043585706764 L3000.0046565793746,350.33043585706764 zM2280.0292686636676,459.35635101221123 C2295.6716793951928,459.35635101221123 2286.5220868411125,485.1216865751485 2263.1302523609484,506.9317726094414 C2221.855822514859,545.4240334972201 2134.280540537904,667.0018506471752 2099.8875323262473,733.5486368899001 C2080.8568583578744,770.3643163455854 2061.311749466782,796.5252035661979 2053.1247996709135,796.1611635852751 C2045.3926804192597,795.8251102460781 2022.203799916082,788.0826378583879 2001.5770531455346,778.9713836879673 C1953.8239050825068,757.8823809550886 1828.6948737470375,725.1094893978734 1764.8511071169924,716.9784086033178 C1735.3093398626079,713.2157007605929 1715.6277177175216,706.068158148064 1715.6277177175216,699.09216724016 C1715.6277177175216,687.8003584480939 1902.23065413913,593.6960233795435 2006.249908238824,552.5295427375386 C2069.4461448643997,527.5202737781729 2269.745697467646,459.35635101221123 2280.0292686636676,459.35635101221123 zM3719.969362706819,459.35635101221123 C3730.260197518859,459.35635101221123 3930.5770546190906,527.5202737781729 3993.7555594761507,552.5295427375386 C4097.782077191863,593.6960233795435 4284.377963633218,687.8003584480939 4284.377963633218,699.09216724016 C4284.377963633218,706.068158148064 4264.706809640629,713.2157007605929 4235.16525602201,716.9784086033178 C4171.671424775443,725.063984400258 4047.2738823001855,757.5498526509182 3995.2958733435953,779.6119786896088 C3972.964526802127,789.0976343075454 3949.7931644316996,796.8402135144788 3943.7729085669853,796.8191701235628 C3937.7522254307405,796.8017585869165 3918.1161077036522,768.3342166280272 3900.1249853689806,733.5486368899001 C3865.7180908325827,667.0018506471752 3778.1428088556277,545.4240334972201 3736.875642625557,506.9317726094414 C3713.4940626621246,485.1216865751485 3704.32353380305,459.35635101221123 3719.969362706819,459.35635101221123 zM3000.0046565793746,506.75674927941145 C2946.052439516119,506.75674927941145 2892.110690605361,515.962431660846 2819.859288433945,534.3912613699831 C2617.6523957185564,585.9674909030946 2482.005221116822,650.6346323323487 2366.4389539054246,750.5633400475563 C2330.085623911844,781.9956501022534 2246.770239093952,879.9607530788126 2231.369236777158,909.3733248825447 C2224.6209102244757,922.2648052515797 2209.5734750991687,944.2568578667124 2197.942289495957,958.2474014293257 C2186.3111038927455,972.2344199569125 2175.089458051516,988.8011232084682 2173.0033048038604,995.0664991007943 C2170.2345852862345,1003.3691315999749 2147.7389528412896,999.7254203942066 2090.0799416152004,981.6570522213442 C1969.0601942242938,943.7283162512176 1896.0773031926656,934.5647206516151 1758.9182282802649,940.0495683336703 C1616.9673031533312,945.7270111112666 1526.430815834261,966.8195388791719 1409.8319401515328,1021.3814196701423 C1165.2233684747189,1135.8466775097259 988.7568082068756,1338.1438444554806 912.9668500377593,1590.9671543637887 C893.9816804873844,1654.2901358458766 886.8833117333415,1702.8281590534607 882.406467454668,1800.005683749696 L876.5716474341898,1926.550382071291 L832.7386088455969,1950.1909760671697 C793.2421626557916,1971.4935104672622 733.5356662555569,2022.6988101782626 678.19385535724,2082.7246020796156 C641.476650246499,2122.5470295936975 590.7201571866608,2229.602343349761 576.4953265754448,2297.2272562143917 C558.9417836969442,2380.6802172636526 558.8612430134453,2435.5045529352356 576.127766241334,2525.7445950607507 C596.3694879539617,2631.536237169421 675.708737317982,2760.1671153112693 761.9678093452385,2827.0464298581646 L810.9567334923486,2865.0277208959596 L815.9935171117395,2939.5621296895843 C819.9767559548054,2998.2787449459283 826.5571647960023,3023.4036991457106 847.0194120273081,3058.042188785912 C893.5896588581527,3136.867740218513 931.6299636720214,3170.298745133259 1034.7216112790047,3223.093087906527 C1076.2235632150841,3244.346699093221 1211.8531128661853,3248.4209986684436 1287.303603804321,3230.6710586596455 C1375.7573560479796,3209.8586109474854 1379.3520982519403,3210.5830590550613 1410.1644642201427,3255.841517857043 C1425.2013243750698,3277.9349419339997 1447.5326709165383,3303.5672875391174 1459.7729320864746,3312.7941201307112 C1512.0485356640565,3352.2418257395475 1602.1473901180143,3396.1000979012897 1654.5278888563334,3407.6158532367845 C1728.5644314821693,3423.892114966002 1719.4394070410926,3423.857078254223 1801.571676991036,3408.140976636496 L1801.571676991036,3408.105939924717 C1841.4916560854472,3400.475200465444 1904.6669564060285,3378.948772931544 1943.6381790669693,3359.662344928147 L2013.8068461629737,3324.939895362768 L2059.1730418208754,3364.877901298023 L2104.5567556115275,3404.8159072332783 L2117.308033531939,3373.5234235679673 C2143.857190986717,3308.4397404997435 2155.4078359064297,3215.7845152848313 2161.414205446403,3019.6338344136893 C2167.0599578146357,2835.1565740810474 2165.7578478254436,2806.7868785489554 2146.744691989821,2699.997758347017 C2135.267537773354,2635.5440951753553 2123.709842873388,2570.5689404582517 2121.0462321522646,2555.6052735898265 C2116.58359465198,2530.5085196702566 2117.9521453641646,2528.9299448938254 2138.5857284792,2535.317949277378 C2225.7899251319177,2562.31523117247 2362.956263660337,2566.319670962621 2454.707056669082,2544.5409363762155 C2564.743148461246,2518.422135937435 2648.545195552375,2470.1396243596537 2738.0840038477327,2381.2542638767627 C2782.232048372185,2337.427610211016 2834.9802142624976,2277.646648015143 2855.285011934815,2248.433721377005 C2961.827731693629,2095.112002439855 2987.1553198427137,2062.5876792616327 3000.0046565793746,2062.5876792616327 C3012.8537796802702,2062.5876792616327 3038.1779496571107,2095.112002439855 3144.724301223934,2248.433721377005 C3165.0254670882423,2277.646648015143 3217.773632978555,2337.427610211016 3261.925095675251,2381.2542638767627 C3351.467535778618,2470.1396243596537 3435.2625328894937,2518.422135937435 3545.30887919839,2544.5409363762155 C3637.0496313261683,2566.319670962621 3774.22259256331,2562.31523117247 3861.4479391567875,2535.317949277378 C3882.0642177748377,2528.9299448938254 3883.4293503147783,2530.5085196702566 3878.948981045978,2555.6052735898265 C3876.2887884970987,2570.5689404582517 3864.7379299416207,2635.5440951753553 3853.257571188675,2699.997758347017 C3834.2512516975403,2806.7868785489554 3832.9561916886014,2835.1565740810474 3838.591475904337,3019.6338344136893 C3844.6117317690514,3215.7845152848313 3856.1625903245294,3308.4397404997435 3882.6940160107915,3373.5234235679673 L3895.469862044207,3404.8159072332783 L3940.8324258940993,3364.877901298023 L3986.1954170155223,3324.939895362768 L4056.514483690262,3359.697381639926 C4096.31183585542,3379.4038229076978 4158.405498296546,3400.475200465444 4199.673091798148,3408.3161601953907 C4263.691612484166,3420.4619354274473 4280.492783606402,3420.4969721392263 4337.616423604777,3408.4558797655336 C4397.259683818498,3395.9251279808814 4484.940074591956,3354.517075620315 4540.24311059888,3312.7941201307112 C4552.493839921313,3303.563869323334 4574.790150197281,3277.9349419339997 4589.841217130597,3255.841517857043 C4620.643221764185,3210.5830590550613 4624.248111666995,3209.8586109474854 4712.69844573841,3230.667640443862 C4788.1631434549345,3248.4209986684436 4923.796218096162,3244.346699093221 4965.308638184739,3223.093087906527 C5068.38960400346,3170.295326917476 5106.401815714198,3136.867740218513 5152.989794313558,3058.042188785912 C5173.465927869605,3023.4036991457106 5180.046336710802,2998.275326730145 5184.001589268621,2939.5584978353145 L5189.076720507874,2865.0277208959596 L5238.045028803637,2827.0464298581646 C5324.289787234622,2760.163697095486 5403.639664977964,2631.536237169421 5423.870971947035,2525.7445950607507 C5441.161796243221,2435.5045529352356 5441.057114718249,2380.6802172636526 5423.521036563558,2297.2272562143917 C5409.274949193699,2229.602343349761 5358.521927715046,2122.5470295936975 5321.804776013247,2082.7246020796156 C5266.466703740822,2022.6988101782626 5206.7529437245685,1971.4935104672622 5167.270490677387,1950.1909760671697 L5123.447813423409,1926.550382071291 L5117.6027388861985,1800.005683749696 C5113.122369617398,1702.8247408376774 5106.05188033072,1654.2901358458766 5087.0459881111165,1590.9636293287622 C5011.266391276615,1338.140319420454 4834.785731048265,1135.8466775097259 4590.156116248574,1021.3814196701423 C4473.564397363982,966.8195388791719 4383.049059985671,945.7270111112666 4241.115439355723,940.0495683336703 C4103.942478118581,934.5647206516151 4030.9277553579304,943.7283162512176 3909.9257397355395,981.6536340055609 C3852.277410297713,999.7254203942066 3829.77088242874,1003.3656065649484 3827.0060083548888,995.0664991007943 C3824.9055415109615,988.7975981734417 3813.7050456104917,972.2344199569125 3802.0845417955425,958.2438763942991 C3790.428574443562,944.2568578667124 3775.3779347817763,922.2612802165531 3768.6223446130753,909.3733248825447 C3753.2213422962814,879.9607530788126 3669.916639266652,781.9956501022534 3633.54942294833,750.5633400475563 C3518.007510214171,650.6346323323487 3382.3393993074424,585.9674909030946 3180.146392916795,534.3912613699831 C3107.894990745379,515.962431660846 3053.9532418346207,506.75674927941145 3000.0046565793746,506.75674927941145 L3000.0046565793746,506.75674927941145 zM377.69047660376236,2887.5097533797816 C385.6639508612061,2887.5097533797816 405.3666161291694,2904.153473305705 421.48506075461046,2924.504034610145 C437.6035587889928,2944.8543822760985 476.6378574096234,2980.9315134841017 508.22374507485074,3004.673799399534 L565.6411876593847,3047.8283463868866 L566.4182343465363,3138.92956525131 C567.1252619116276,3222.0710413873167 569.8729383063765,3235.4804882667668 597.8885984717053,3292.412153968762 C650.6822153710746,3399.7052473602525 771.733420628414,3489.9769079817634 897.9474011977,3516.1937684858276 C980.8078486534941,3533.380130167352 1108.0544376941107,3523.2643478336104 1181.9998646660679,3493.5472343674337 C1215.9204173828766,3479.9311990715796 1246.0991396713507,3468.765169938415 1249.067394993719,3468.765169938415 C1252.0390684883314,3468.765169938415 1267.1494193465041,3491.236947774887 1282.6518986517913,3518.713848072075 C1355.5927034376655,3647.943341252976 1510.5959192782466,3731.249105385068 1678.1299409295025,3731.249105385068 C1783.8990855823504,3731.249105385068 1859.5806236006028,3708.2876681376365 1956.2704618661373,3646.8580577417742 C1974.84609165453,3635.0622223505343 1979.8443140182935,3636.8824222551484 2014.0377864252077,3667.789502090891 C2034.6260787580104,3686.376050412655 2060.282665985578,3706.2922846741276 2071.0492676468275,3712.0677875170077 C2081.819501116086,3717.808253648109 2090.6223628231674,3731.354215520405 2090.6223628231674,3742.100231389195 C2090.6223628231674,3763.801628843503 2025.6166312659334,3858.9737290673656 1959.8161746619735,3933.6339709295135 C1936.3717857835582,3960.2358079861733 1885.5523235819128,4023.5903011450137 1846.8784819061984,4074.4490792309807 C1718.5397868336295,4243.231174517568 1481.3796261122188,4474.247870016989 1276.0435035253468,4630.499213518924 C1168.27558265283,4712.510328423086 1067.4765672606154,4781.324994018796 1055.3798693249264,4781.080164313316 C1049.8530052600545,4780.9750541779795 1020.0031752321811,4750.697780600312 989.0648709803645,4713.735331504431 C664.5325424858092,4326.117352662259 469.6269190925086,3895.936178163247 388.11408604390454,3387.3144287842297 C379.9200862677826,3336.175784281004 371.09959961006825,3204.7552147829992 368.2714359407619,3091.4135885629366 C363.78065192840586,2911.4934507849102 364.8972192554793,2887.5097533797816 377.69047660376236,2887.5097533797816 zM5622.332616061845,2887.5097533797816 C5635.108462095261,2887.5097533797816 5636.228340776695,2911.4934507849102 5631.748398779426,3091.4135885629366 C5628.913024903042,3204.7552147829992 5620.092431427445,3336.175784281004 5611.902063459333,3387.3144287842297 C5530.557254940097,3894.885931363824 5330.065216512361,4337.563248212682 5012.456342489051,4710.969994935731 C4981.759446651966,4747.057808068057 4951.867957649869,4777.755094910099 4946.022455841128,4779.224927696923 C4940.176954032388,4780.660151048942 4905.559841902985,4761.268612910208 4869.017871528689,4736.101999205566 C4600.132051942637,4550.868458630866 4315.074859470304,4287.369313096569 4153.120149464288,4074.4490792309807 C4114.443103252095,4023.5903011450137 4063.6550455079414,3960.2358079861733 4040.2033930135076,3933.6339709295135 C3974.399731873069,3858.9737290673656 3909.365586759057,3763.801628843503 3909.365586759057,3742.100231389195 C3909.365586759057,3731.354215520405 3918.186180234654,3717.808253648109 3928.967095492175,3712.0677875170077 C3939.7125472126645,3706.2922846741276 3965.368920804467,3686.376050412655 3985.9851994225173,3667.789502090891 C4020.14726737194,3636.8824222551484 4025.152753351722,3635.0622223505343 4043.7386376568465,3646.8580577417742 C4140.414375961875,3708.2876681376365 4216.123900265375,3731.249105385068 4321.8654859045055,3731.249105385068 C4489.420443860756,3731.249105385068 4644.409346105065,3647.943341252976 4717.353996334714,3518.713848072075 C4732.85968017648,3491.236947774887 4747.980819640798,3468.765169938415 4750.920875042153,3468.765169938415 C4753.895966709009,3468.765169938415 4784.102782100614,3479.9311990715796 4818.020023463061,3493.5472343674337 C4891.944407312141,3523.2643478336104 5019.211932657752,3533.380130167352 5102.061591507401,3516.1937684858276 C5228.279310702579,3489.9769079817634 5349.316362590471,3399.7052473602525 5402.099778382049,3292.412153968762 C5430.136054398725,3235.4804882667668 5432.866319478606,3222.0710413873167 5433.601653782593,3138.92956525131 L5434.37159708055,3047.8283463868866 L5491.775099931401,3004.673799399534 C5523.381656856916,2980.9315134841017 5562.409065724118,2944.8543822760985 5578.509938807867,2924.504034610145 C5594.645848157117,2904.153473305705 5614.352038415207,2887.5097533797816 5622.332616061845,2887.5097533797816 L5622.332616061845,2887.5097533797816 zM4218.749056548753,4844.014644207782 C4309.684401841543,4844.014644207782 4400.654783399834,4867.361485284782 4473.94936901296,4914.089776873589 C4528.062453807448,4948.532146383222 4621.868209242122,5048.009489386168 4621.868209242122,5070.936317198793 C4621.868209242122,5088.997314843873 4532.857722194225,5156.62244134699 4392.184552579245,5245.458878616482 C4241.640556066704,5340.525441428035 3916.9962290222174,5488.971289188776 3815.1752869469346,5509.343000703375 C3790.0436027945834,5514.348123164091 3786.088350236765,5511.547749883612 3771.702545076434,5478.540603725996 C3751.4011655763607,5431.847348848969 3743.490660460724,5257.639690560318 3758.9266990430187,5196.350227011571 C3786.1934590332676,5088.017141468008 3868.3082108504605,4974.749006887287 3963.5487440845463,4914.089776873589 C4036.8433296976727,4867.361485284782 4127.778674990463,4844.014644207782 4218.749056548753,4844.014644207782 zM1792.6006839367037,4844.399620760378 C1876.5392442818265,4845.590014406916 1959.3331441967457,4866.031372068101 2025.0075556992088,4905.934341291577 C2074.255513211683,4935.861247751454 2152.187704016833,5012.30708008341 2183.3885666241404,5061.310621552984 C2198.603919460933,5085.182158752723 2219.8047055327042,5130.930276965664 2230.5187527957023,5163.027750447945 C2269.251985214156,5278.95611146203 2248.4083981418808,5504.407524389244 2198.4464699019445,5509.902733537892 C2188.13469878491,5511.023053760873 2141.71848334081,5497.9321418647305 2095.312736049207,5480.815853606764 C1973.2955232703534,5435.837688499014 1902.0138138374023,5404.685351680819 1789.1109437113628,5347.1059340878855 C1606.9076222392905,5254.174474309984 1378.130528946247,5100.443210394296 1378.130528946247,5070.936317198793 C1378.130528946247,5048.009489386168 1471.9500638877798,4948.532146383222 1526.0458441852825,4914.089776873589 C1600.8663232516992,4866.416348620696 1697.468464035599,4843.034470831917 1792.6006839367037,4844.399620760378 zM3000.0046565793746,5071.8810265859065 C3148.623367575492,5071.8810265859065 3248.1763523668924,5113.393975443323 3343.7670346202212,5215.146568327036 C3431.5521069186507,5308.56811479287 3468.7593390659313,5399.609728519572 3468.7593390659313,5520.96365253572 C3468.7593390659313,5583.863095718407 3466.1692190480535,5596.428884214838 3452.343566864205,5600.804200417479 C3352.307551607577,5632.30647707649 2876.9021741130564,5644.137349179509 2677.715877482522,5620.055591709097 C2518.778345389117,5600.8392371292575 2531.2531786292966,5609.239929693722 2531.2531786292966,5521.418702511874 C2531.2531786292966,5393.554359259433 2578.078933835379,5287.426877450052 2674.481645632419,5196.875350411283 C2773.124542063859,5104.1887203388615 2857.2485382532177,5071.8810265859065 3000.0046565793746,5071.8810265859065 z" style="fill-rule: nonzero;" stroke-width="0" id="svg_2" stroke="#aac83c" fill="#aac83c" fill-opacity="1"/>
        </g>
    </g></g></svg>